<svg xmlns="http://www.w3.org/2000/svg" width="300" height="400" viewBox="0 0 300 400"><rect width="100%" height="100%" fill="#DDDDDD"/><path fill="#999999" d="M64.2 209.185h4.75q1.32 0 2.21-.31.89-.32 1.43-.84.53-.53.77-1.23.23-.7.23-1.48 0-.83-.26-1.48-.26-.66-.82-1.12-.56-.47-1.45-.71-.88-.25-2.12-.25H64.2zm4-17.99h-4v7.32h3.74q2.41 0 3.65-.88 1.23-.87 1.23-2.78 0-1.98-1.12-2.82t-3.5-.84m-8.71-3.64h8.71q2.49 0 4.25.48 1.77.47 2.9 1.34 1.13.88 1.65 2.12.53 1.24.53 2.8 0 .89-.26 1.71-.27.81-.82 1.52t-1.4 1.29q-.85.57-2.02.98 5.22 1.17 5.22 5.63 0 1.61-.62 2.98-.61 1.36-1.78 2.35t-2.89 1.55q-1.71.56-3.92.56h-9.55zm30.31 7.07q1.99 0 3.63.65 1.63.65 2.8 1.84 1.16 1.19 1.79 2.9.63 1.72.63 3.84 0 2.13-.63 3.85-.63 1.71-1.79 2.92-1.17 1.21-2.8 1.85-1.64.65-3.63.65-2.02 0-3.66-.65-1.65-.64-2.81-1.85t-1.8-2.92q-.64-1.72-.64-3.85 0-2.12.64-3.84.64-1.71 1.8-2.9t2.81-1.84q1.64-.65 3.66-.65m0 15.18q2.24 0 3.31-1.51 1.08-1.5 1.08-4.41 0-2.9-1.08-4.43-1.07-1.52-3.31-1.52-2.28 0-3.37 1.53-1.1 1.53-1.1 4.42t1.1 4.4q1.09 1.52 3.37 1.52m20.1-15.18q2 0 3.64.65 1.63.65 2.8 1.84 1.16 1.19 1.79 2.9.63 1.72.63 3.84 0 2.13-.63 3.85-.63 1.71-1.79 2.92-1.17 1.21-2.8 1.85-1.64.65-3.64.65-2.01 0-3.65-.65-1.65-.64-2.81-1.85-1.17-1.21-1.8-2.92-.64-1.72-.64-3.85 0-2.12.64-3.84.63-1.71 1.8-2.9 1.16-1.19 2.81-1.84 1.64-.65 3.65-.65m0 15.18q2.24 0 3.32-1.51 1.08-1.5 1.08-4.41 0-2.9-1.08-4.43-1.08-1.52-3.32-1.52-2.27 0-3.36 1.53-1.1 1.53-1.1 4.42t1.1 4.4q1.09 1.52 3.36 1.52m12.17-22.95h4.32v14.9h.81q.43 0 .69-.12.25-.11.51-.46l4.46-5.51q.29-.37.63-.56.34-.2.88-.2h3.96l-5.59 6.67q-.59.79-1.29 1.21.36.26.65.61t.56.75l5.98 8.72h-3.9q-.51 0-.88-.17-.36-.16-.61-.6l-4.58-6.81q-.25-.4-.51-.52-.27-.13-.79-.13h-.98v8.23h-4.32zm45.27 20.04q.39 0 .68.3l1.86 2.01q-1.54 1.91-3.79 2.92-2.25 1.02-5.4 1.02-2.82 0-5.07-.96-2.24-.97-3.84-2.68-1.59-1.72-2.44-4.1t-.85-5.19q0-2.86.91-5.23t2.57-4.08q1.65-1.72 3.94-2.67 2.3-.96 5.08-.96 2.76 0 4.91.91 2.14.91 3.65 2.38l-1.58 2.19q-.14.21-.36.37t-.6.16q-.26 0-.54-.15t-.62-.37q-.33-.22-.77-.48-.43-.26-1.01-.48t-1.34-.37-1.76-.15q-1.7 0-3.11.61-1.4.6-2.42 1.75-1.01 1.14-1.57 2.8-.56 1.65-.56 3.77 0 2.13.6 3.79.6 1.67 1.64 2.8 1.03 1.14 2.43 1.75 1.4.6 3.01.6.96 0 1.74-.11.78-.1 1.43-.33.66-.23 1.25-.58.58-.36 1.16-.89.18-.16.37-.25.19-.1.4-.1m13.04-12.27q1.99 0 3.63.65t2.8 1.84 1.79 2.9q.63 1.72.63 3.84 0 2.13-.63 3.85-.63 1.71-1.79 2.92t-2.8 1.85q-1.64.65-3.63.65-2.01 0-3.66-.65-1.64-.64-2.81-1.85-1.16-1.21-1.8-2.92-.64-1.72-.64-3.85 0-2.12.64-3.84.64-1.71 1.8-2.9 1.17-1.19 2.81-1.84 1.65-.65 3.66-.65m0 15.18q2.24 0 3.31-1.51 1.08-1.5 1.08-4.41 0-2.9-1.08-4.43-1.07-1.52-3.31-1.52-2.28 0-3.37 1.53t-1.09 4.42 1.09 4.4q1.09 1.52 3.37 1.52m24.94-14.9h3.41l-7.12 17.96h-3.92l-7.13-17.96h3.57q.49 0 .82.23.32.23.43.58l3.46 9.59q.28.84.49 1.64.21.81.37 1.61.17-.8.38-1.61.21-.8.51-1.64l3.54-9.59q.12-.35.43-.58.32-.23.76-.23m9.11 6.92h8.16q0-.84-.24-1.59-.23-.74-.71-1.3-.47-.56-1.2-.88-.72-.33-1.68-.33-1.88 0-2.95 1.07-1.08 1.07-1.38 3.03m11.03 2.6h-11.11q.1 1.39.49 2.39.38 1.01 1.01 1.67.63.65 1.5.98.86.32 1.91.32t1.81-.25q.77-.24 1.33-.54.57-.3 1-.54.43-.25.83-.25.55 0 .81.41l1.24 1.57q-.72.84-1.61 1.41t-1.86.91-1.98.48-1.95.14q-1.87 0-3.48-.62t-2.8-1.84q-1.19-1.21-1.88-3.01-.68-1.79-.68-4.15 0-1.84.6-3.46.59-1.62 1.7-2.82t2.71-1.9q1.61-.7 3.62-.7 1.7 0 3.13.55 1.44.54 2.47 1.58t1.62 2.56q.58 1.51.58 3.45 0 .98-.21 1.32t-.8.34m8.07-8.43.26 2.03q.84-1.61 1.99-2.53 1.16-.92 2.73-.92 1.25 0 2 .54l-.28 3.24q-.09.32-.26.45-.16.13-.44.13-.26 0-.78-.09t-1.01-.09q-.71 0-1.27.21t-1.01.61q-.45.39-.79.95t-.64 1.28v11.06h-4.32v-17.96h2.54q.66 0 .93.24.26.24.35.85"/></svg>